<svg width="64" height="64" viewBox="0 0 64 64" fill="none" xmlns="http://www.w3.org/2000/svg">
  <!-- Rounded square background with orange gradient -->
  <defs>
    <linearGradient id="bg" x1="0" y1="0" x2="64" y2="64" gradientUnits="userSpaceOnUse">
      <stop offset="0%" stop-color="#f97316"/>
      <stop offset="100%" stop-color="#fb923c"/>
    </linearGradient>
  </defs>
  <rect width="64" height="64" rx="14" fill="url(#bg)"/>

  <!-- Fork / utensil icon (left) -->
  <!-- Left tine -->
  <line x1="22" y1="12" x2="22" y2="24" stroke="white" stroke-width="2.8" stroke-linecap="round"/>
  <!-- Middle tine -->
  <line x1="27" y1="12" x2="27" y2="24" stroke="white" stroke-width="2.8" stroke-linecap="round"/>
  <!-- Right tine -->
  <line x1="32" y1="12" x2="32" y2="24" stroke="white" stroke-width="2.8" stroke-linecap="round"/>
  <!-- Fork neck -->
  <path d="M22 24 Q22 29 27 29 Q32 29 32 24" stroke="white" stroke-width="2.8" fill="none" stroke-linecap="round" stroke-linejoin="round"/>
  <!-- Fork handle -->
  <line x1="27" y1="29" x2="27" y2="52" stroke="white" stroke-width="2.8" stroke-linecap="round"/>

  <!-- Flame icon (right) -->
  <path d="M42 50 C42 50 36 46 37 39 C37.5 35 40 33 40 33 C40 33 39.5 37 42 38 C42 38 40.5 34 43 31 C43 31 43.5 36 46 37 C48 38 49 40 49 43 C49 47 46 50 42 50 Z"
    fill="white" fill-opacity="0.95"/>
  <!-- Inner flame -->
  <path d="M42 48 C42 48 39 46 39.5 42.5 C39.8 40.5 41.5 39.5 41.5 39.5 C41.5 39.5 41.5 41.5 43 42 C43 42 43 48 42 48 Z"
    fill="#f97316" fill-opacity="0.7"/>
</svg>
